<svg width="123" height="30" viewBox="0 0 123 30" fill="none" xmlns="http://www.w3.org/2000/svg">
<path d="M41.2 24H44.56V17.448H45.184C45.4 17.952 45.592 18.312 45.832 18.672L49.408 24H53.368L48.664 17.136C51.208 16.584 52.696 14.952 52.696 12.288C52.696 9 50.392 7.152 46.624 7.176L41.2 7.2V24ZM44.56 14.424V10.224H46.432C48.256 10.224 49.288 10.968 49.288 12.312C49.288 13.68 48.256 14.424 46.432 14.424H44.56ZM54.1788 24H57.4188V17.16C57.4188 15 58.6428 14.064 60.0108 14.064C61.6188 14.064 62.6988 15 62.6988 17.16V24H65.9388V16.368C65.9388 13.224 63.8748 11.232 61.1868 11.232C59.3148 11.232 58.0908 11.904 57.4188 13.248V6.48H54.1788V24ZM68.4117 29.016C71.3397 29.016 72.8997 27.312 73.9557 24.792L79.4757 11.52H75.6357L73.2117 18.648C72.9957 19.248 72.8037 19.992 72.6837 20.64C72.5637 19.992 72.3717 19.248 72.1557 18.648L69.7317 11.52H65.8197L70.7637 23.424L70.5957 23.952C70.2357 25.056 69.4437 25.848 68.1957 25.848C67.6677 25.848 67.2117 25.8 66.7317 25.68L66.2517 28.776C66.8997 28.968 67.7637 29.016 68.4117 29.016ZM85.1568 24H86.9328V21.12H85.5888C84.9648 21.12 84.5808 20.76 84.5808 19.968V14.28H87.2208V11.52H84.5808V8.664L81.3408 9V11.52H79.5888V14.28H81.3408V20.136C81.3408 22.848 82.6848 24 85.1568 24ZM88.3038 24H91.5438V17.16C91.5438 15 92.7678 14.064 94.1358 14.064C95.7438 14.064 96.8238 15 96.8238 17.16V24H100.064V16.368C100.064 13.224 97.9998 11.232 95.3118 11.232C93.4398 11.232 92.2158 11.904 91.5438 13.248V6.48H88.3038V24ZM101.874 24H105.114V17.16C105.114 15 106.338 14.064 107.706 14.064C109.314 14.064 110.394 15 110.394 17.16V24H113.634V17.16C113.634 14.76 114.666 14.064 116.178 14.064C117.642 14.064 118.674 15 118.674 17.16V24H121.914V16.368C121.914 13.224 119.85 11.232 117.162 11.232C114.978 11.232 113.778 12.072 112.938 13.584C112.122 12.072 110.634 11.232 108.882 11.232C106.962 11.232 105.714 11.952 105.066 13.344V11.52H101.874V24Z" fill="#121212"/>
<path d="M41.2 24H40.2V25H41.2V24ZM44.56 24V25H45.56V24H44.56ZM44.56 17.448V16.448H43.56V17.448H44.56ZM45.184 17.448L46.1031 17.0541L45.8434 16.448H45.184V17.448ZM45.832 18.672L44.9999 19.2267L45.0017 19.2293L45.832 18.672ZM49.408 24L48.5777 24.5573L48.8748 25H49.408V24ZM53.368 24V25H55.2656L54.1929 23.4347L53.368 24ZM48.664 17.136L48.452 16.1587L46.9982 16.4742L47.8391 17.7013L48.664 17.136ZM46.624 7.176L46.6284 8.17599L46.6304 8.17598L46.624 7.176ZM41.2 7.2L41.1956 6.20001L40.2 6.20441V7.2H41.2ZM44.56 14.424H43.56V15.424H44.56V14.424ZM44.56 10.224V9.224H43.56V10.224H44.56ZM41.2 25H44.56V23H41.2V25ZM45.56 24V17.448H43.56V24H45.56ZM44.56 18.448H45.184V16.448H44.56V18.448ZM44.2649 17.8419C44.5 18.3906 44.7198 18.8065 45 19.2267L46.6641 18.1173C46.4642 17.8175 46.3 17.5134 46.1031 17.0541L44.2649 17.8419ZM45.0017 19.2293L48.5777 24.5573L50.2383 23.4427L46.6623 18.1147L45.0017 19.2293ZM49.408 25H53.368V23H49.408V25ZM54.1929 23.4347L49.4889 16.5707L47.8391 17.7013L52.5431 24.5653L54.1929 23.4347ZM48.876 18.1133C50.3062 17.8029 51.53 17.1682 52.3952 16.1525C53.266 15.1302 53.696 13.813 53.696 12.288H51.696C51.696 13.427 51.382 14.2578 50.8728 14.8555C50.358 15.4598 49.5658 15.9171 48.452 16.1587L48.876 18.1133ZM53.696 12.288C53.696 10.3929 53.021 8.80851 51.7121 7.72088C50.4283 6.65408 48.6532 6.16305 46.6176 6.17602L46.6304 8.17598C48.3628 8.16494 49.6237 8.58591 50.4339 9.25912C51.219 9.91149 51.696 10.8951 51.696 12.288H53.696ZM46.6196 6.17601L41.1956 6.20001L41.2044 8.19999L46.6284 8.17599L46.6196 6.17601ZM40.2 7.2V24H42.2V7.2H40.2ZM45.56 14.424V10.224H43.56V14.424H45.56ZM44.56 11.224H46.432V9.224H44.56V11.224ZM46.432 11.224C47.2297 11.224 47.705 11.39 47.9552 11.5723C48.1593 11.721 48.288 11.9295 48.288 12.312H50.288C50.288 11.3505 49.9007 10.515 49.1328 9.9557C48.411 9.42997 47.4583 9.224 46.432 9.224V11.224ZM48.288 12.312C48.288 12.7127 48.1546 12.9263 47.952 13.0751C47.7032 13.2578 47.2301 13.424 46.432 13.424V15.424C47.4579 15.424 48.4128 15.2182 49.136 14.6869C49.9054 14.1217 50.288 13.2793 50.288 12.312H48.288ZM46.432 13.424H44.56V15.424H46.432V13.424ZM54.1788 24H53.1788V25H54.1788V24ZM57.4188 24V25H58.4188V24H57.4188ZM62.6988 24H61.6988V25H62.6988V24ZM65.9388 24V25H66.9388V24H65.9388ZM57.4188 13.248H56.4188L58.3132 13.6952L57.4188 13.248ZM57.4188 6.48H58.4188V5.48H57.4188V6.48ZM54.1788 6.48V5.48H53.1788V6.48H54.1788ZM54.1788 25H57.4188V23H54.1788V25ZM58.4188 24V17.16H56.4188V24H58.4188ZM58.4188 17.16C58.4188 16.2686 58.6681 15.7641 58.928 15.4894C59.1875 15.2152 59.5569 15.064 60.0108 15.064V13.064C59.0967 13.064 58.17 13.3808 57.4755 14.1146C56.7814 14.8479 56.4188 15.8914 56.4188 17.16H58.4188ZM60.0108 15.064C60.6215 15.064 60.9957 15.2371 61.2271 15.4848C61.4679 15.7424 61.6988 16.2352 61.6988 17.16H63.6988C63.6988 15.9248 63.3896 14.8696 62.6884 14.1192C61.9778 13.3589 61.008 13.064 60.0108 13.064V15.064ZM61.6988 17.16V24H63.6988V17.16H61.6988ZM62.6988 25H65.9388V23H62.6988V25ZM66.9388 24V16.368H64.9388V24H66.9388ZM66.9388 16.368C66.9388 14.5728 66.3458 13.0304 65.2935 11.9299C64.2405 10.8287 62.7854 10.232 61.1868 10.232V12.232C62.2761 12.232 63.197 12.6313 63.848 13.3121C64.4997 13.9936 64.9388 15.0192 64.9388 16.368H66.9388ZM61.1868 10.232C60.1352 10.232 59.1868 10.4204 58.3787 10.8555C57.5583 11.2972 56.9446 11.9603 56.5243 12.8008L58.3132 13.6952C58.5649 13.1917 58.8992 12.8468 59.3269 12.6165C59.7667 12.3796 60.3663 12.232 61.1868 12.232V10.232ZM58.4188 13.248V6.48H56.4188V13.248H58.4188ZM57.4188 5.48H54.1788V7.48H57.4188V5.48ZM53.1788 6.48V24H55.1788V6.48H53.1788ZM73.9557 24.792L74.878 25.1785L74.879 25.176L73.9557 24.792ZM79.4757 11.52L80.399 11.904L80.9746 10.52H79.4757V11.52ZM75.6357 11.52V10.52H74.9195L74.6889 11.198L75.6357 11.52ZM73.2117 18.648L74.1526 18.9867L74.1556 18.9784L74.1584 18.97L73.2117 18.648ZM72.6837 20.64L71.7004 20.8221L73.667 20.8221L72.6837 20.64ZM72.1557 18.648L71.2089 18.97L71.2118 18.9784L71.2148 18.9867L72.1557 18.648ZM69.7317 11.52L70.6784 11.198L70.4479 10.52H69.7317V11.52ZM65.8197 11.52V10.52H64.3215L64.8962 11.9036L65.8197 11.52ZM70.7637 23.424L71.7166 23.7272L71.8276 23.3784L71.6872 23.0404L70.7637 23.424ZM70.5957 23.952L71.5464 24.262L71.5486 24.2552L70.5957 23.952ZM66.7317 25.68L66.9742 24.7099L65.9113 24.4441L65.7435 25.5268L66.7317 25.68ZM66.2517 28.776L65.2635 28.6228L65.1296 29.4865L65.9676 29.7348L66.2517 28.776ZM68.4117 30.016C70.0895 30.016 71.4436 29.5203 72.5264 28.6168C73.5857 27.7329 74.318 26.5148 74.878 25.1785L73.0334 24.4055C72.5374 25.5892 71.9617 26.4831 71.245 27.0812C70.5518 27.6597 69.6618 28.016 68.4117 28.016V30.016ZM74.879 25.176L80.399 11.904L78.5524 11.136L73.0324 24.408L74.879 25.176ZM79.4757 10.52H75.6357V12.52H79.4757V10.52ZM74.6889 11.198L72.2649 18.326L74.1584 18.97L76.5824 11.842L74.6889 11.198ZM72.2708 18.3093C72.0334 18.9687 71.8285 19.7663 71.7004 20.4579L73.667 20.8221C73.7789 20.2177 73.958 19.5273 74.1526 18.9867L72.2708 18.3093ZM73.667 20.4579C73.5389 19.7663 73.334 18.9687 73.0966 18.3093L71.2148 18.9867C71.4094 19.5273 71.5885 20.2177 71.7004 20.8221L73.667 20.4579ZM73.1024 18.326L70.6784 11.198L68.7849 11.842L71.2089 18.97L73.1024 18.326ZM69.7317 10.52H65.8197V12.52H69.7317V10.52ZM64.8962 11.9036L69.8402 23.8076L71.6872 23.0404L66.7432 11.1364L64.8962 11.9036ZM69.8108 23.1208L69.6428 23.6488L71.5486 24.2552L71.7166 23.7272L69.8108 23.1208ZM69.645 23.642C69.5085 24.0606 69.3094 24.3598 69.0846 24.5491C68.8722 24.7279 68.5924 24.848 68.1957 24.848V26.848C69.047 26.848 69.7872 26.5721 70.3728 26.0789C70.946 25.5962 71.3229 24.9474 71.5464 24.262L69.645 23.642ZM68.1957 24.848C67.7348 24.848 67.3618 24.8068 66.9742 24.7099L66.4892 26.6501C67.0615 26.7932 67.6006 26.848 68.1957 26.848V24.848ZM65.7435 25.5268L65.2635 28.6228L67.2399 28.9292L67.7199 25.8332L65.7435 25.5268ZM65.9676 29.7348C66.7605 29.9697 67.7448 30.016 68.4117 30.016V28.016C67.7826 28.016 67.0389 27.9663 66.5358 27.8172L65.9676 29.7348ZM86.9328 24V25H87.9328V24H86.9328ZM86.9328 21.12H87.9328V20.12H86.9328V21.12ZM84.5808 14.28V13.28H83.5808V14.28H84.5808ZM87.2208 14.28V15.28H88.2208V14.28H87.2208ZM87.2208 11.52H88.2208V10.52H87.2208V11.52ZM84.5808 11.52H83.5808V12.52H84.5808V11.52ZM84.5808 8.664H85.5808V7.55493L84.4776 7.66933L84.5808 8.664ZM81.3408 9L81.2376 8.00533L80.3408 8.09834V9H81.3408ZM81.3408 11.52V12.52H82.3408V11.52H81.3408ZM79.5888 11.52V10.52H78.5888V11.52H79.5888ZM79.5888 14.28H78.5888V15.28H79.5888V14.28ZM81.3408 14.28H82.3408V13.28H81.3408V14.28ZM85.1568 25H86.9328V23H85.1568V25ZM87.9328 24V21.12H85.9328V24H87.9328ZM86.9328 20.12H85.5888V22.12H86.9328V20.12ZM85.5888 20.12C85.527 20.12 85.5081 20.1109 85.5173 20.1143C85.531 20.1195 85.5599 20.1348 85.5864 20.1637C85.6117 20.1911 85.6119 20.2057 85.6042 20.1815C85.5956 20.1539 85.5808 20.0878 85.5808 19.968H83.5808C83.5808 20.5114 83.712 21.0805 84.1151 21.5183C84.5306 21.9696 85.0848 22.12 85.5888 22.12V20.12ZM85.5808 19.968V14.28H83.5808V19.968H85.5808ZM84.5808 15.28H87.2208V13.28H84.5808V15.28ZM88.2208 14.28V11.52H86.2208V14.28H88.2208ZM87.2208 10.52H84.5808V12.52H87.2208V10.52ZM85.5808 11.52V8.664H83.5808V11.52H85.5808ZM84.4776 7.66933L81.2376 8.00533L81.4439 9.99467L84.6839 9.65866L84.4776 7.66933ZM80.3408 9V11.52H82.3408V9H80.3408ZM81.3408 10.52H79.5888V12.52H81.3408V10.52ZM78.5888 11.52V14.28H80.5888V11.52H78.5888ZM79.5888 15.28H81.3408V13.28H79.5888V15.28ZM80.3408 14.28V20.136H82.3408V14.28H80.3408ZM80.3408 20.136C80.3408 21.6436 80.7149 22.9176 81.6247 23.802C82.5292 24.6813 83.7837 25 85.1568 25V23C84.0578 23 83.4043 22.7427 83.0188 22.368C82.6386 21.9984 82.3408 21.3404 82.3408 20.136H80.3408ZM88.3038 24H87.3038V25H88.3038V24ZM91.5438 24V25H92.5438V24H91.5438ZM96.8238 24H95.8238V25H96.8238V24ZM100.064 24V25H101.064V24H100.064ZM91.5438 13.248H90.5438L92.4382 13.6952L91.5438 13.248ZM91.5438 6.48H92.5438V5.48H91.5438V6.48ZM88.3038 6.48V5.48H87.3038V6.48H88.3038ZM88.3038 25H91.5438V23H88.3038V25ZM92.5438 24V17.16H90.5438V24H92.5438ZM92.5438 17.16C92.5438 16.2686 92.7931 15.7641 93.053 15.4894C93.3125 15.2152 93.6819 15.064 94.1358 15.064V13.064C93.2217 13.064 92.295 13.3808 91.6005 14.1146C90.9064 14.8479 90.5438 15.8914 90.5438 17.16H92.5438ZM94.1358 15.064C94.7465 15.064 95.1207 15.2371 95.3521 15.4848C95.5929 15.7424 95.8238 16.2352 95.8238 17.16H97.8238C97.8238 15.9248 97.5146 14.8696 96.8134 14.1192C96.1028 13.3589 95.133 13.064 94.1358 13.064V15.064ZM95.8238 17.16V24H97.8238V17.16H95.8238ZM96.8238 25H100.064V23H96.8238V25ZM101.064 24V16.368H99.0638V24H101.064ZM101.064 16.368C101.064 14.5728 100.471 13.0304 99.4185 11.9299C98.3655 10.8287 96.9104 10.232 95.3118 10.232V12.232C96.4011 12.232 97.322 12.6313 97.973 13.3121C98.6247 13.9936 99.0638 15.0192 99.0638 16.368H101.064ZM95.3118 10.232C94.2602 10.232 93.3118 10.4204 92.5037 10.8555C91.6833 11.2972 91.0696 11.9603 90.6493 12.8008L92.4382 13.6952C92.6899 13.1917 93.0242 12.8468 93.4519 12.6165C93.8917 12.3796 94.4913 12.232 95.3118 12.232V10.232ZM92.5438 13.248V6.48H90.5438V13.248H92.5438ZM91.5438 5.48H88.3038V7.48H91.5438V5.48ZM87.3038 6.48V24H89.3038V6.48H87.3038ZM101.874 24H100.874V25H101.874V24ZM105.114 24V25H106.114V24H105.114ZM110.394 24H109.394V25H110.394V24ZM113.634 24V25H114.634V24H113.634ZM118.674 24H117.674V25H118.674V24ZM121.914 24V25H122.914V24H121.914ZM112.938 13.584L112.058 14.0589L112.925 15.666L113.812 14.0696L112.938 13.584ZM105.066 13.344H104.066L105.973 13.766L105.066 13.344ZM105.066 11.52H106.066V10.52H105.066V11.52ZM101.874 11.52V10.52H100.874V11.52H101.874ZM101.874 25H105.114V23H101.874V25ZM106.114 24V17.16H104.114V24H106.114ZM106.114 17.16C106.114 16.2686 106.363 15.7641 106.623 15.4894C106.883 15.2152 107.252 15.064 107.706 15.064V13.064C106.792 13.064 105.865 13.3808 105.171 14.1146C104.477 14.8479 104.114 15.8914 104.114 17.16H106.114ZM107.706 15.064C108.317 15.064 108.691 15.2371 108.922 15.4848C109.163 15.7424 109.394 16.2352 109.394 17.16H111.394C111.394 15.9248 111.085 14.8696 110.384 14.1192C109.673 13.3589 108.703 13.064 107.706 13.064V15.064ZM109.394 17.16V24H111.394V17.16H109.394ZM110.394 25H113.634V23H110.394V25ZM114.634 24V17.16H112.634V24H114.634ZM114.634 17.16C114.634 16.0757 114.871 15.6053 115.067 15.3981C115.247 15.2067 115.559 15.064 116.178 15.064V13.064C115.285 13.064 114.325 13.2693 113.612 14.0259C112.913 14.7667 112.634 15.8443 112.634 17.16H114.634ZM116.178 15.064C116.69 15.064 117.012 15.2198 117.222 15.4605C117.45 15.7205 117.674 16.2252 117.674 17.16H119.674C119.674 15.9348 119.382 14.8915 118.728 14.1435C118.056 13.3762 117.131 13.064 116.178 13.064V15.064ZM117.674 17.16V24H119.674V17.16H117.674ZM118.674 25H121.914V23H118.674V25ZM122.914 24V16.368H120.914V24H122.914ZM122.914 16.368C122.914 14.5728 122.321 13.0304 121.269 11.9299C120.216 10.8287 118.761 10.232 117.162 10.232V12.232C118.251 12.232 119.172 12.6313 119.823 13.3121C120.475 13.9936 120.914 15.0192 120.914 16.368H122.914ZM117.162 10.232C115.941 10.232 114.908 10.4676 114.039 10.9792C113.168 11.4918 112.545 12.2321 112.064 13.0984L113.812 14.0696C114.171 13.4239 114.568 12.9882 115.053 12.7028C115.54 12.4164 116.199 12.232 117.162 12.232V10.232ZM113.818 13.1091C112.816 11.2527 110.977 10.232 108.882 10.232V12.232C110.291 12.232 111.428 12.8913 112.058 14.0589L113.818 13.1091ZM108.882 10.232C107.801 10.232 106.829 10.4345 106.009 10.8932C105.177 11.3585 104.564 12.0523 104.159 12.922L105.973 13.766C106.216 13.2437 106.551 12.8815 106.985 12.6388C107.431 12.3895 108.043 12.232 108.882 12.232V10.232ZM106.066 13.344V11.52H104.066V13.344H106.066ZM105.066 10.52H101.874V12.52H105.066V10.52ZM100.874 11.52V24H102.874V11.52H100.874Z" fill="black"/>
<path d="M14.649 14.2999C15.0052 7.49212 20.537 2.0008 27.5 1.53159V28.4685C20.5371 27.9993 15.0052 22.508 14.649 15.7001L13.6504 15.7001C13.2891 22.6051 7.60317 28.156 0.5 28.4855V1.51453C7.60318 1.84402 13.2891 7.39482 13.6504 14.2999L14.649 14.2999Z" fill="#FF6428" stroke="black"/>
</svg>
